<svg width="16" height="16" viewBox="0 0 16 16" fill="none" xmlns="http://www.w3.org/2000/svg">
<path fill-rule="evenodd" clip-rule="evenodd" d="M3.29289 0.292893C3.47386 0.111929 3.72386 0 4 0C4.27614 0 4.52614 0.111929 4.70711 0.292893L7.70711 3.29289C8.09763 3.68342 8.09763 4.31658 7.70711 4.70711C7.31658 5.09763 6.68342 5.09763 6.29289 4.70711L5 3.41421V11C5 11.5523 4.55228 12 4 12C3.44772 12 3 11.5523 3 11V3.41421L1.70711 4.70711C1.31658 5.09763 0.683417 5.09763 0.292893 4.70711C-0.0976311 4.31658 -0.0976311 3.68342 0.292893 3.29289L3.29289 0.292893ZM11 5C11 4.448 11.448 4 12 4C12.553 4 13 4.448 13 5V12.585L14.293 11.293C14.683 10.902 15.317 10.902 15.707 11.293C15.903 11.488 16 11.744 16 12.001C16 12.256 15.903 12.512 15.707 12.707L12.707 15.707C12.527 15.888 12.277 16 12 16C11.724 16 11.474 15.888 11.293 15.707L8.293 12.707C8.098 12.512 8 12.256 8 12.001C8 11.744 8.098 11.488 8.293 11.293C8.684 10.902 9.316 10.902 9.707 11.293L11 12.585V5Z" fill="#5C5F62"/>
</svg>
